<svg width="833" height="749" viewBox="0 0 833 749" fill="none" xmlns="http://www.w3.org/2000/svg">
<rect x="211" y="14" width="380" height="380" rx="61" fill="#FFD074" stroke="#273148" stroke-width="28" stroke-linejoin="round"/>
<path d="M282 146C282.188 131.064 298.233 119 318 119C337.767 119 353.812 131.064 354 146" stroke="#273148" stroke-width="28"/>
<path d="M443 146C443.188 131.064 459.233 119 479 119C498.767 119 514.812 131.064 515 146" stroke="#273148" stroke-width="28"/>
<rect x="368.067" y="233.361" width="61" height="85.4862" rx="30.5" transform="rotate(-0.275941 368.067 233.361)" fill="#FF8B8B" stroke="#273148" stroke-width="28"/>
<path d="M164.214 552.292C166.738 552.292 168.679 553.553 170.038 556.075C171.59 558.403 172.367 561.41 172.367 565.096C172.367 569.557 171.687 573.049 170.329 575.571C168.97 578.093 166.835 580.324 163.923 582.264L108.02 619.801C100.644 659.958 90.939 691.481 78.9044 714.372C67.0639 737.457 51.9236 749 33.4834 749C23.584 749 15.5285 745.896 9.31712 739.688C3.10571 733.675 0 725.721 0 715.827C0 706.71 2.03812 697.398 6.11436 687.893C10.3847 678.387 18.149 667.426 29.4072 655.011C40.8595 642.789 56.9703 628.725 77.7398 612.818L78.6132 606.125C79.972 598.947 81.5248 588.666 83.2718 575.28C79.3897 589.248 73.9547 599.917 66.9668 607.289C59.979 614.467 52.6029 618.055 44.8387 618.055C36.1039 618.055 28.9219 614.079 23.2928 606.125C17.8578 597.977 15.1403 587.89 15.1403 575.862C15.1403 561.313 16.1109 548.024 18.0519 535.997C19.993 523.775 23.1958 510.875 27.6602 497.295C29.6013 491.476 32.3188 487.305 35.8127 484.783C39.3066 482.261 44.8387 481 52.4088 481C56.6792 481 59.5908 481.679 61.1436 483.037C62.8906 484.395 63.7641 486.432 63.7641 489.148C63.7641 490.7 62.6965 495.937 60.5613 504.861C58.6202 512.039 57.0674 518.537 55.9027 524.357C54.3499 532.311 52.9911 539.974 51.8265 547.345C50.6619 554.523 50.0795 560.44 50.0795 565.096C50.0795 572.467 52.1177 576.153 56.1939 576.153C59.1055 576.153 62.6965 573.243 66.9668 567.423C71.4313 561.604 76.0898 552.777 80.9425 540.944C85.9893 529.11 90.842 514.561 95.5005 497.295C97.0534 491.476 99.3827 487.305 102.488 484.783C105.788 482.261 110.641 481 117.046 481C121.511 481 124.617 481.582 126.363 482.746C128.11 483.91 128.984 485.85 128.984 488.566C128.984 493.415 126.461 510.099 121.414 538.616L113.844 585.465C128.79 574.213 143.348 563.932 157.518 554.62C160.041 553.068 162.273 552.292 164.214 552.292ZM36.6862 720.774C41.5388 720.774 46.9738 715.148 52.9911 703.897C59.0084 692.645 65.0258 673.925 71.0431 647.736C56.0969 660.346 45.2269 671.791 38.4331 682.073C31.8335 692.548 28.5337 701.666 28.5337 709.426C28.5337 712.723 29.116 715.439 30.2807 717.573C31.6394 719.707 33.7746 720.774 36.6862 720.774Z" fill="#E85187"/>
<path d="M181.036 618.055C172.301 618.055 165.119 614.079 159.49 606.125C154.055 597.977 151.337 587.89 151.337 575.862C151.337 561.313 152.308 548.024 154.249 535.997C156.19 523.775 159.393 510.875 163.857 497.295C165.798 491.476 168.516 487.305 172.01 484.783C175.504 482.261 181.036 481 188.606 481C192.876 481 195.788 481.679 197.341 483.037C199.088 484.395 199.961 486.432 199.961 489.148C199.961 490.7 198.893 495.937 196.758 504.861C194.817 512.039 193.264 518.537 192.1 524.357C188.218 544.726 186.277 558.306 186.277 565.096C186.277 569.169 186.762 572.079 187.732 573.825C188.703 575.377 190.256 576.153 192.391 576.153C195.302 576.153 198.893 573.243 203.164 567.423C207.628 561.604 212.287 552.777 217.139 540.944C222.186 529.11 227.039 514.561 231.697 497.295C233.25 491.476 235.58 487.305 238.685 484.783C241.985 482.261 246.838 481 253.243 481C257.708 481 260.814 481.582 262.56 482.746C264.307 483.716 265.181 485.656 265.181 488.566C265.181 493.415 262.755 506.704 257.902 528.431C252.467 553.262 249.749 568.587 249.749 574.407C249.749 578.093 250.526 581.003 252.079 583.137C253.632 585.077 255.67 586.047 258.193 586.047C262.075 586.047 266.637 583.719 271.878 579.063C277.313 574.213 284.495 566.453 293.423 555.784C295.753 553.068 298.373 551.71 301.285 551.71C303.808 551.71 305.749 552.874 307.108 555.202C308.661 557.53 309.437 560.731 309.437 564.805C309.437 572.564 307.593 578.578 303.905 582.846C295.559 593.127 286.533 601.566 276.827 608.162C267.316 614.758 256.446 618.055 244.217 618.055C234.9 618.055 228.009 614.467 223.545 607.289C219.275 600.111 217.139 590.024 217.139 577.026C213.84 590.218 208.89 600.402 202.29 607.58C195.691 614.564 188.606 618.055 181.036 618.055Z" fill="#E85187"/>
<path d="M306.501 618.055C299.125 618.055 293.884 614.176 290.778 606.416C287.866 598.656 286.411 586.241 286.411 569.169C286.411 543.95 290.002 519.992 297.184 497.295C298.93 491.67 301.745 487.596 305.627 485.074C309.703 482.358 315.332 481 322.514 481C326.397 481 329.114 481.485 330.667 482.455C332.22 483.425 332.996 485.268 332.996 487.984C332.996 491.088 331.54 498.071 328.629 508.935C326.688 516.695 325.135 523.484 323.97 529.304C322.806 534.93 321.835 542.01 321.059 550.546C326.299 535.415 332.511 522.611 339.693 512.136C347.069 501.66 354.542 493.9 362.112 488.857C369.876 483.619 377.155 481 383.949 481C390.743 481 395.499 482.552 398.216 485.656C401.128 488.76 402.583 493.512 402.583 499.914C402.583 506.122 400.739 517.374 397.051 533.669C395.499 540.653 394.431 545.89 393.849 549.382C403.554 525.521 414.327 508.159 426.167 497.295C438.008 486.432 449.072 481 459.36 481C471.977 481 478.285 487.305 478.285 499.914C478.285 507.48 476.15 521.156 471.88 540.944C468.192 557.821 466.348 568.975 466.348 574.407C466.348 582.167 469.162 586.047 474.791 586.047C478.673 586.047 483.235 583.719 488.476 579.063C493.911 574.213 501.093 566.453 510.022 555.784C512.351 553.068 514.971 551.71 517.883 551.71C520.406 551.71 522.347 552.874 523.706 555.202C525.259 557.53 526.035 560.731 526.035 564.805C526.035 572.564 524.191 578.578 520.503 582.846C512.157 593.127 503.131 601.566 493.425 608.162C483.914 614.758 473.044 618.055 460.815 618.055C450.916 618.055 443.443 615.242 438.396 609.617C433.349 603.797 430.826 595.455 430.826 584.592C430.826 579.16 432.185 569.46 434.902 555.493C437.426 543.271 438.687 534.833 438.687 530.177C438.687 527.073 437.62 525.521 435.485 525.521C432.961 525.521 429.37 528.819 424.712 535.415C420.053 541.817 415.395 550.352 410.736 561.022C406.077 571.691 402.292 582.943 399.381 594.776C397.246 604.088 394.722 610.296 391.811 613.4C389.093 616.503 384.629 618.055 378.417 618.055C372.012 618.055 367.159 615.048 363.859 609.035C360.753 602.827 359.201 595.358 359.201 586.629C359.201 579.257 360.171 568.587 362.112 554.62C363.665 542.204 364.441 534.057 364.441 530.177C364.441 527.073 363.374 525.521 361.239 525.521C358.327 525.521 354.639 529.013 350.175 535.997C345.71 542.98 341.343 551.904 337.072 562.768C332.996 573.631 329.696 584.301 327.173 594.776C325.038 603.894 322.514 610.102 319.603 613.4C316.885 616.503 312.518 618.055 306.501 618.055Z" fill="#E85187"/>
<path d="M523.165 618.055C515.789 618.055 510.548 614.176 507.442 606.416C504.53 598.656 503.075 586.241 503.075 569.169C503.075 543.95 506.666 519.992 513.848 497.295C515.595 491.67 518.409 487.596 522.291 485.074C526.367 482.358 531.997 481 539.178 481C543.061 481 545.778 481.485 547.331 482.455C548.884 483.425 549.66 485.268 549.66 487.984C549.66 491.088 548.204 498.071 545.293 508.935C543.352 516.695 541.799 523.484 540.634 529.304C539.47 534.93 538.499 542.01 537.723 550.546C542.964 535.415 549.175 522.611 556.357 512.136C563.733 501.66 571.206 493.9 578.776 488.857C586.541 483.619 593.82 481 600.613 481C607.407 481 612.163 482.552 614.88 485.656C617.792 488.76 619.247 493.512 619.247 499.914C619.247 506.122 617.404 517.374 613.715 533.669C612.163 540.653 611.095 545.89 610.513 549.382C620.218 525.521 630.991 508.159 642.831 497.295C654.672 486.432 665.736 481 676.024 481C688.641 481 694.949 487.305 694.949 499.914C694.949 507.48 692.814 521.156 688.544 540.944C684.856 557.821 683.012 568.975 683.012 574.407C683.012 582.167 685.826 586.047 691.455 586.047C695.337 586.047 699.899 583.719 705.14 579.063C710.575 574.213 717.757 566.453 726.686 555.784C729.015 553.068 731.635 551.71 734.547 551.71C737.07 551.71 739.011 552.874 740.37 555.202C741.923 557.53 742.699 560.731 742.699 564.805C742.699 572.564 740.855 578.578 737.167 582.846C728.821 593.127 719.795 601.566 710.089 608.162C700.578 614.758 689.708 618.055 677.48 618.055C667.58 618.055 660.107 615.242 655.06 609.617C650.013 603.797 647.49 595.455 647.49 584.592C647.49 579.16 648.849 569.46 651.566 555.493C654.09 543.271 655.351 534.833 655.351 530.177C655.351 527.073 654.284 525.521 652.149 525.521C649.625 525.521 646.034 528.819 641.376 535.415C636.717 541.817 632.059 550.352 627.4 561.022C622.741 571.691 618.956 582.943 616.045 594.776C613.91 604.088 611.386 610.296 608.475 613.4C605.757 616.503 601.293 618.055 595.081 618.055C588.676 618.055 583.823 615.048 580.523 609.035C577.418 602.827 575.865 595.358 575.865 586.629C575.865 579.257 576.835 568.587 578.776 554.62C580.329 542.204 581.106 534.057 581.106 530.177C581.106 527.073 580.038 525.521 577.903 525.521C574.991 525.521 571.303 529.013 566.839 535.997C562.374 542.98 558.007 551.904 553.737 562.768C549.66 573.631 546.36 584.301 543.837 594.776C541.702 603.894 539.178 610.102 536.267 613.4C533.549 616.503 529.182 618.055 523.165 618.055Z" fill="#E85187"/>
<path d="M821.062 481C825.527 481 828.633 481.582 830.38 482.746C832.127 483.91 833 485.85 833 488.566C833 493.221 830.477 509.808 825.43 538.325C820.965 565.678 818.345 581.876 817.568 586.92C810.387 636.776 800.487 676.253 787.87 705.352C775.253 734.451 758.463 749 737.499 749C727.6 749 719.545 745.896 713.333 739.688C707.122 733.675 704.016 725.721 704.016 715.827C704.016 706.71 706.054 697.398 710.13 687.893C714.401 678.387 722.165 667.426 733.423 655.011C744.876 642.789 760.986 628.725 781.756 612.818L782.629 606.125C783.988 598.947 785.541 588.666 787.288 575.28C783.406 589.248 777.971 599.917 770.983 607.289C763.995 614.467 756.619 618.055 748.855 618.055C740.12 618.055 732.938 614.079 727.309 606.125C721.874 597.977 719.156 587.89 719.156 575.862C719.156 561.313 720.127 548.024 722.068 535.997C724.009 523.775 727.212 510.875 731.676 497.295C733.617 491.476 736.335 487.305 739.829 484.783C743.323 482.261 748.855 481 756.425 481C760.695 481 763.607 481.679 765.16 483.037C766.907 484.395 767.78 486.432 767.78 489.148C767.78 490.7 766.713 495.937 764.577 504.861C762.636 512.039 761.083 518.537 759.919 524.357C758.366 532.311 757.007 539.974 755.843 547.345C754.678 554.523 754.096 560.44 754.096 565.096C754.096 572.467 756.134 576.153 760.21 576.153C763.122 576.153 766.713 573.243 770.983 567.423C775.447 561.604 780.106 552.777 784.959 540.944C790.005 529.11 794.858 514.561 799.517 497.295C801.069 491.476 803.399 487.305 806.504 484.783C809.804 482.261 814.657 481 821.062 481ZM740.702 720.774C745.555 720.774 750.99 715.148 757.007 703.897C763.025 692.645 769.042 673.925 775.059 647.736C760.113 660.346 749.243 671.791 742.449 682.073C735.85 692.548 732.55 701.666 732.55 709.426C732.55 712.723 733.132 715.439 734.297 717.573C735.655 719.707 737.791 720.774 740.702 720.774Z" fill="#E85187"/>
</svg>
