<svg height="512" viewBox="0 0 60 60" width="512" xmlns="http://www.w3.org/2000/svg"><g id="028---Salad-Bowl" fill="none"><g id="Icons_copy"><path id="Shape" d="m33 22c.0031527 6.433237-5.0673788 11.7244699-11.4949155 11.9952465-6.4275368.2707766-11.92512635-4.5752468-12.46305808-10.9859549s4.07519338-12.1051361 10.45797358-12.9092916c3.4159775-.43037313 6.852255.6272502 9.4350493 2.9039356 2.5827944 2.2766854 4.0632634 5.5530831 4.0649507 8.9960644z" fill="#cad9fc"/><ellipse id="Oval" cx="19.5" cy="22" fill="#e8edfc" rx="10.5" ry="11.9"/><path id="Shape" d="m48.41 24.24c-5.77 3.6-4.37 2.7-7.66 4.76h-15.75c.52-.86 8.64-13.88 10.81-17.38.4710719-.7723832 1.2655479-1.2909342 2.1622111-1.4112656s1.7997454.1704087 2.4577889.7912656c9.16 9.15 8.73 8.68 9 9 .4505264.6912468.5964644 1.5375346.4034782 2.3397518-.1929862.8022173-.707858 1.4895367-1.4234782 1.9002482z" fill="#cad9fc"/><path id="Shape" d="m45.42 24.06c-5.77 3.6-4.37 2.7-7.66 4.76h-12.66c10.33-16.62.21-.31 10.52-16.91.3069351-.6029304.7970696-1.0930649 1.4-1.4.28.17-.38-.47 9 8.91.6303293.6556578.9291839 1.5618672.8125464 2.4638638s-.6361722 1.7023797-1.4125464 2.1761362z" fill="#e8edfc"/><path id="Shape" d="m51.69 15.92c-1.7587146-.2338442-3.5307476.322662-4.84 1.52l-4.25-4.25c1.2562606-1.2435973 1.9002138-2.9778806 1.76-4.74-.21-2.24-.21-5.3 1.06-6.57 1.72-1.71 4.83-1.09 5.66 2.86 1.54-1.41 3.49-2.2 5-.74s.67 3.4-.73 4.94c1.0718689.18913167 2.0655733.68598388 2.86 1.43 1.95 2 .72 6.63-6.52 5.55z" fill="#a4c2f7"/><path id="Shape" d="m52.15 16c5-.76 5.33-6 .15-7 2.21-2.43 1.71-4.39.31-5.29 1.0622995-.69415098 2.461036-.57449506 3.39.29 1.47 1.47.67 3.4-.73 4.94 1.0718689.18913167 2.0655733.68598388 2.86 1.43 1.99 1.96.87 6.43-5.98 5.63z" fill="#7facfa"/><path id="Shape" d="m55.85 29h-15.1c1.85-1.16 3.14-1.95 7.66-4.76.6952022-.414322 1.1935184-1.0919479 1.3818177-1.8790388.1882992-.787091.0506067-1.6168721-.3818177-2.3009612 2.0781063.2508057 3.9564495 1.35976 5.1799085 3.0581643 1.2234591 1.6984044 1.6803946 3.831281 1.2600915 5.8818357z" fill="#a4c2f7"/><path id="Shape" d="m52.85 29h-12.1c1.85-1.16 3.14-1.95 7.66-4.76.980036-.5996981 1.5314757-1.706461 1.42-2.85 2.4266852 1.713348 3.6114904 4.6989003 3.02 7.61z" fill="#cad9fc"/><path id="Shape" d="m13.17 29h-8.34c-.93621758-.6597988-1.74582989-1.4829611-2.39-2.43-2-2.88-1.53-9.83-1-13.07h.1c1.05.28 9.53 2.53 11.86 5.93s2.09 7.4-.23 9.57z" fill="#cad9fc"/><path id="Shape" d="m10.17 29h-5.34c-.93621758-.6597988-1.74582989-1.4829611-2.39-2.43-2-3-1.42-9.82-1.12-12.22 3 1 7.48 2.78 9.07 5.11 2.26 3.32 2.1 7.37-.22 9.54z" fill="#e8edfc"/><path id="Shape" d="m56 35v4c0 5.3043298-2.1071368 10.3914081-5.8578644 14.1421356-3.7507275 3.7507276-8.8378058 5.8578644-14.1421356 5.8578644h-12c-5.3043298 0-10.3914081-2.1071368-14.14213562-5.8578644-3.75072757-3.7507275-5.85786438-8.8378058-5.85786438-14.1421356v-4z" fill="#a4c2f7"/><path id="Shape" d="m53 35v4c0 5.3043298-2.1071368 10.3914081-5.8578644 14.1421356-3.7507275 3.7507276-8.8378058 5.8578644-14.1421356 5.8578644h-9c-5.3043298 0-10.3914081-2.1071368-14.14213562-5.8578644-3.75072757-3.7507275-5.85786438-8.8378058-5.85786438-14.1421356v-4z" fill="#cad9fc"/><path id="Shape" d="m59 32c0 1.6568542-1.3431458 3-3 3h-52c-1.65685425 0-3-1.3431458-3-3s1.34314575-3 3-3h52c1.6568542 0 3 1.3431458 3 3z" fill="#cad9fc"/><path id="Shape" d="m56 32c0 1.6568542-1.3431458 3-3 3h-49c-1.65685425 0-3-1.3431458-3-3s1.34314575-3 3-3h49c1.6568542 0 3 1.3431458 3 3z" fill="#e8edfc"/></g><path id="Shape" d="m6 26v-4c-1.21256662-.0010665-2.30526303-.7319802-2.7691479-1.8523059-.46388488-1.1203258-.20773331-2.4097468.6491479-3.2676941.81004632-.7415858 1.91771465-1.0665018 3-.88-.93621758-.6597988-1.74582989-1.4829611-2.39-2.43-1.81-2.66-1.59-8.71-1.13-12.2-1.63-.54-2.83-.85-2.88-.87-.53 3.26-1 10.18 1 13.07.63226654.9435685 1.42811775 1.7665125 2.35 2.43h-.83c-1.65685425 0-3 1.3431458-3 3s1.34314575 3 3 3v4c0 5.3043298 2.10713681 10.3914081 5.85786438 14.1421356 3.75072752 3.7507276 8.83780582 5.8578644 14.14213562 5.8578644h3c-5.3043298 0-10.3914081-2.1071368-14.1421356-5.8578644-3.75072759-3.7507275-5.8578644-8.8378058-5.8578644-14.1421356z" fill="#fff" transform="translate(1 13)"/><g id="Layer_3" transform="translate(0 -1)"><path id="Shape" d="m6.5 47.4-1.85.78c-1.08958769-2.5894756-1.65057758-5.3706255-1.65000045-8.18h2.00000045c-.0000904 2.5421766.50997953 5.0585216 1.5 7.4z" fill="#fff"/><g fill="#428dff"><path id="Shape" d="m4.42 45c-.55228475 0-1-.4477153-1-1s.44771525-1 1-1 1 .4477153 1 1-.44771525 1-1 1z"/><path id="Shape" d="m57 29.13c0-.21 0-.42 0-.63-.0018439-4.1471869-2.9995863-7.6861297-7.09-8.37-.07-.07-.12-.16-.19-.24l-1.35-1.34c.9546478-.5636973 2.07143-.7891675 3.17-.64 2.08.31 5 .34 6.94-1.25.9045716-.7417547 1.4531151-1.8315763 1.51-3 .0606988-1.1123303-.3452098-2.1995855-1.12-3-.5404593-.5289817-1.1745709-.95285308-1.87-1.25 1.38-2.18.86-4-.23-5.12s-2.94-1.61-5.13-.23c-.286755-.70450557-.7079227-1.34644665-1.24-1.89-.750273-.75110817-1.768363-1.17314663-2.83-1.17314663s-2.079727.42203846-2.83 1.17314663c-1.26 1.24-1.74 3.72-1.38 7.36.0968383 1.1238721-.1962567 2.2468143-.83 3.18l-1.39-1.39c-.847324-.8426051-2.0334404-1.2514837-3.22-1.11-1.23799.1259107-2.3468669.820807-3 1.88l-2.56 4.12c-2.4487698-3.9049983-6.7509552-6.25680918-11.36-6.21-4.6846357-.06933253-9.0544656 2.3515837-11.48 6.36-2.5205224-1.1912902-5.1491424-2.1389329-7.85-2.83-.27133111-.0656471-.55775124-.0148891-.79.14-.23600398.1544694-.39579783.4014235-.44.68-.06.4-1.5 9.85 1.18 13.78.27874671.4080118.58619073.7956586.92 1.16-1.59298225.6447889-2.59607973 2.2350302-2.4918435 3.950396.10423624 1.7153659 1.29250781 3.172446 2.9518435 3.619604v3.14c0 .5522847.44771525 1 1 1s1-.4477153 1-1v-3h39c.5522847 0 1-.4477153 1-1s-.4477153-1-1-1h-40c-1.1045695 0-2-.8954305-2-2s.8954305-2 2-2h52c1.1045695 0 2 .8954305 2 2s-.8954305 2-2 2h-6c-.5522847 0-1 .4477153-1 1s.4477153 1 1 1h5v3c0 10.4934102-8.5065898 19-19 19h-12c-1.8542504-.0289271-3.6966715-.3012557-5.48-.81-1.767189-.5531842-3.4496906-1.347325-5-2.36-1.5381891-1.0402053-2.9276127-2.2849673-4.13-3.7-1.16666379-1.4430571-2.1383399-3.0333782-2.89-4.73-.20760999-.4939779-.76768235-.7365289-1.27-.55-.25792473.0935174-.46609948.2888968-.57576848.5403792-.109669.2514823-.11119895.5369775-.00423152.7896208.82653314 1.8771697 1.89928942 3.6359519 3.19 5.23 1.33084377 1.5605484 2.8644412 2.9360777 4.56 4.09 1.7180963 1.117701 3.5823927 1.9926416 5.54 2.6 1.970828.5688933 4.008904.8715778 6.06.9h12c11.5979797 0 21-9.4020203 21-21v-3.14c1.751125-.466857 2.9695753-2.0527103 2.9695753-3.865s-1.2184503-3.398143-2.9695753-3.865zm-11.64-19.77c-.27-2.87 0-5 .76-5.77.3755332-.3786253.8867249-.59159665 1.42-.59159665s1.0444668.21297135 1.42.59159665c.5995603.656404.9955973 1.47279613 1.14 2.35.0731277.353573.3311726.64026983.6751233.75008541s.7203892.02569478.9848767-.22008541c.84-.77 2.43-1.9 3.56-.76s0 2.71-.76 3.55c-.2457802.2644875-.329901.64092598-.2200854.9848767.1098156.3439507.3965124.6019956.7500854.6751233.8826044.1493388 1.7026393.5524068 2.36 1.16.3854906.3885601.5857612.9238287.55 1.47-.0282278.6039536-.3117957 1.167454-.78 1.55-1.48 1.2-4 1-5.4.83-1.7219331-.2316192-3.4684677.1854105-4.9 1.17l-3-3c1.0417277-1.3516535 1.5538209-3.0372938 1.44-4.74zm9.64 19.14c0 .17 0 .33.0000514.5h-10.7500514l4.69-2.91c1.063012-.6509021 1.7618347-1.7601444 1.89-3 .0199911-.222886.0199911-.447114 0-.67 2.5198165.9614074 4.1806969 3.3830267 4.17 6.08zm-34-16.5c4.3005002-.0815438 8.2603006 2.3309724 10.16 6.19l-1.37 2.19c-.6943488-2.7497159-2.7586687-4.946364-5.46-5.81-.3444764-.1556276-.7472657-.1037179-1.0410285.1341631-.2937627.2378811-.4282879.6210741-.3476868.9903807.0806011.3693067.3625518.6616039.7287153.7554562 2.4799999.7361464 4.2192366 2.9654222 4.33 5.55-.0050022.6145763-.11666 1.223619-.33 1.8l-3.24 5.2h-9.26c1.3374245-2.8884642 1.0284837-6.2715567-.81-8.87.735213-1.7496535 2.1952496-3.0928871 4-3.68.5035862-.1984283.7578837-.7615185.5737784-1.2705156-.1841054-.5089971-.7397776-.7791195-1.2537784-.6094844-2.0080846.6851069-3.694783 2.0835719-4.74 3.93-.5111508-.4254462-1.0525802-.8131364-1.62-1.16 2.053516-3.3684327 5.7354191-5.3995652 9.68-5.34zm-18.73 3.76c3.05.87 8.66 2.87 10.29 5.26 1.79 2.63 1.88 5.84.33 7.78l-4.12-4.94c-.22864998-.2750945-.58669244-.407309-.93925626-.3468396-.35256382.0604695-.64608617.3044361-.77000001.64-.12391384.335564-.05939371.7117451.16925627.9868396l3.22 3.86h-5.28c-.73959185-.5569913-1.38164353-1.2328351-1.9-2-1.62-2.38-1.35-8.17-1-11.24zm28.67 6.57 3.17 3.18c.1887188.1871865.444197.2915368.71.29.265803.0015368.5212812-.1028135.71-.29.1893127-.1877666.2957983-.4433625.2957983-.71s-.1064856-.5222334-.2957983-.71l-3.53-3.5 3.25-5.23 4.5 4.49c.3900375.3877236 1.0199625.3877236 1.41 0 .3877236-.3900375.3877236-1.0199625 0-1.41l-4.82-4.83.29-.46c.3128983-.5525571.8696018-.9236927 1.5-1 .5786113-.0718016 1.1579742.1274697 1.57.54l8.58 8.57c.4125303.4120258.6118016.9913887.54 1.57-.0808688.6312723-.4503453 1.1891819-1 1.51l-4 2.45-3.45-3.45c-.1877666-.1893127-.4433625-.2957983-.71-.2957983s-.5222334.1064856-.71.2957983c-.3877236.3900375-.3877236 1.0199625 0 1.41l3.13 3.13-1.62 1.12h-13.67z"/></g></g></g></svg>