<svg height="512" viewBox="0 0 60 55" width="512" xmlns="http://www.w3.org/2000/svg"><g id="Page-1" fill="none" fill-rule="evenodd"><g id="005---Pancake-Tower" fill-rule="nonzero" transform="translate(0 -1)"><path id="Shape" d="m14 47h-10.5c-1.38071187 0-2.5-1.1192881-2.5-2.5s1.11928813-2.5 2.5-2.5h53c1.3807119 0 2.5 1.1192881 2.5 2.5s-1.1192881 2.5-2.5 2.5z" fill="#e8edfc"/><path id="Shape" d="m56.5 42h-3c1.3807119 0 2.5 1.1192881 2.5 2.5s-1.1192881 2.5-2.5 2.5h3c1.3807119 0 2.5-1.1192881 2.5-2.5s-1.1192881-2.5-2.5-2.5z" fill="#cad9fc"/><path id="Shape" d="m4.38 47 3.35 2.98c1.4625633 1.3014436 3.3522342 2.0203015 5.31 2.02h.96c.5522847 0 1 .4477153 1 1 .0032948 1.1032019.8967981 1.9967052 2 2h26c1.1011688-.0081672 1.9918328-.8988312 2-2 0-.5522847.4477153-1 1-1h.96c1.9577658.0003015 3.8474367-.7185564 5.31-2.02l3.35-2.98z" fill="#a4c2f7"/><path id="Shape" d="m52.62 47-3.35 2.98c-1.4625633 1.3014436-3.3522342 2.0203015-5.31 2.02h-.96c-.5522847 0-1 .4477153-1 1-.0081672 1.1011688-.8988312 1.9918328-2 2h3c1.1011688-.0081672 1.9918328-.8988312 2-2 0-.5522847.4477153-1 1-1h.96c1.9577658.0003015 3.8474367-.7185564 5.31-2.02l3.35-2.98z" fill="#7facfa"/><path id="Shape" d="m48 39c0 1.6568542-1.3431458 3-3 3h-28c-1.6568542 0-3-1.3431458-3-3s1.3431458-3 3-3h28c1.6568542 0 3 1.3431458 3 3z" fill="#e8edfc"/><path id="Shape" d="m45 36h-3c1.6568542 0 3 1.3431458 3 3s-1.3431458 3-3 3h3c1.6568542 0 3-1.3431458 3-3s-1.3431458-3-3-3z" fill="#cad9fc"/><path id="Shape" d="m46 33c0 1.6568542-1.3431458 3-3 3h-28c-1.6568542 0-3-1.3431458-3-3s1.3431458-3 3-3h28c1.6568542 0 3 1.3431458 3 3z" fill="#e8edfc"/><path id="Shape" d="m43 30h-3c1.6568542 0 3 1.3431458 3 3s-1.3431458 3-3 3h3c1.6568542 0 3-1.3431458 3-3s-1.3431458-3-3-3z" fill="#cad9fc"/><path id="Shape" d="m48 27c0 1.6568542-1.3431458 3-3 3h-28c-1.6568542 0-3-1.3431458-3-3s1.3431458-3 3-3h28c1.6568542 0 3 1.3431458 3 3z" fill="#e8edfc"/><path id="Shape" d="m45 24h-3c1.6568542 0 3 1.3431458 3 3s-1.3431458 3-3 3h3c1.6568542 0 3-1.3431458 3-3s-1.3431458-3-3-3z" fill="#cad9fc"/><path id="Shape" d="m46 21c0 1.6568542-1.3431458 3-3 3h-28c-1.6568542 0-3-1.3431458-3-3s1.3431458-3 3-3h28c.7956495 0 1.5587112.3160705 2.1213203.8786797.5626092.5626091.8786797 1.3256708.8786797 2.1213203z" fill="#e8edfc"/><path id="Shape" d="m43 18h-3c1.6568542 0 2.9999999 1.3431458 2.9999999 3s-1.3431457 3-2.9999999 3h3c1.6568542 0 3-1.3431458 3-3s-1.3431458-3-3-3z" fill="#cad9fc"/><rect id="Rectangle-path" fill="#e8edfc" height="6" rx="2" width="14" x="23" y="12"/><path id="Shape" d="m35 12h-3c1.1045695 0 2 .8954305 2 2v2c0 1.1045695-.8954305 2-2 2h3c1.1045695 0 2-.8954305 2-2v-2c0-1.1045695-.8954305-2-2-2z" fill="#cad9fc"/><circle id="Oval" cx="30" cy="8" fill="#e8edfc" r="4"/><path id="Shape" d="m30 4c-.5146843.00216946-1.0240724.10404706-1.5.3 1.5110147.60851068 2.5007405 2.07405844 2.5007405 3.703s-.9897258 3.0944893-2.5007405 3.703c1.496414.6077595 3.211506.2559465 4.3478056-.8918556 1.1362996-1.14780213 1.4708211-2.86635044.8480212-4.35656747s-2.0807039-2.45966481-3.6958268-2.45757693z" fill="#cad9fc"/><g fill="#fff"><path id="Shape" d="m12.88 30.88c-.8568812.8579473-1.1130328 2.1473683-.6491479 3.2676941.4638849 1.1203257 1.5565813 1.8512394 2.7691479 1.8523059h2c-1.6568542 0-3 1.3431458-3 3s1.3431458 3 3 3h3c-1.6568542 0-3-1.3431458-3-3s1.3431458-3 3-3h-2c-1.6568542 0-3-1.3431458-3-3s1.3431458-3 3-3h2c-1.6568542 0-3-1.3431458-3-3s1.3431458-3 3-3h-2c-1.6568542 0-3-1.3431458-3-3s1.3431458-3 3-3h-3c-1.6568542 0-3 1.3431458-3 3s1.3431458 3 3 3h2c-1.6568542 0-3 1.3431458-3 3s1.3431458 3 3 3h-2c-.7955351-.0000702-1.5583676.3165773-2.12.88z"/><path id="Shape" d="m28.5 11.7c.95451.3945257 2.0271602.390925 2.979-.01-1.4971647-.6156035-2.4745139-2.07421343-2.4745139-3.693s.9773492-3.07739647 2.4745139-3.693c-.7132149-.29752838-1.4985595-.3772111-2.257-.229-.247598.05061759-.4894807.12599653-.722.225-1.5004686.61635537-2.4801316 2.07787176-2.4801316 3.7s.979663 3.0836446 2.4801316 3.7z"/><path id="Shape" d="m25 18h3c-1.1045695 0-2-.8954305-2-2v-2c0-1.1045695.8954305-2 2-2h-3c-1.1045695 0-2 .8954305-2 2v2c0 1.1045695.8954305 2 2 2z"/><path id="Shape" d="m3.5 47h.88l3.35 2.98c1.4625633 1.3014436 3.3522342 2.0203015 5.31 2.02h.96c.5522847 0 1 .4477153 1 1 .0032948 1.1032019.8967981 1.9967052 2 2h3c-1.1032019-.0032948-1.9967052-.8967981-2-2 0-.5522847-.4477153-1-1-1h-.96c-1.9577658.0003015-3.8474367-.7185564-5.31-2.02l-3.35-2.98h-.88c-1.38071187 0-2.5-1.1192881-2.5-2.5s1.11928813-2.5 2.5-2.5h-3c-1.38071187 0-2.5 1.1192881-2.5 2.5s1.11928813 2.5 2.5 2.5z"/><path id="Rectangle-path" d="m3.5 41h8v2h-8z"/></g><path id="Shape" d="m7.52 43c-.55228475.0027614-1.00223858-.4427153-1.005-.995s.44271525-1.0022386.995-1.005h.01c.55228475 0 1 .4477153 1 1s-.44771525 1-1 1z" fill="#428dff"/><path id="Shape" d="m56.5 41h-8.056c.6106276-1.0249573.724876-2.2711155.3107985-3.3900182s-1.3120413-1.9904669-2.4427985-2.3709818c.9174047-1.3517056.9174047-3.1262944 0-4.478 1.6079538-.550092 2.6883361-2.061554 2.6883361-3.761s-1.0803823-3.210908-2.6883361-3.761c.827911-1.22565.9119076-2.8081254.2183964-4.1145314s-2.0513246-2.1234904-3.5303964-2.1244686h-5.184c.1184378-.320257.1806856-.6585603.184-1v-2c0-1.6568542-1.3431458-3-3-3h-1.026c.6618067-.8603889 1.0223232-1.91453073 1.026-3-.0033061-2.76005315-2.2399468-4.99669388-5-5-.4026983.004555-.8033322.05828629-1.193.16-1.0278534-.90655806-2.2103319-1.6209228-3.491-2.109-.5246705-.17535041-1.0921496.10782949-1.2675.6325s.1078295 1.09214959.6325 1.2675c.7719553.30099223 1.4998365.70462319 2.164 1.2-2.0961199 1.67706432-2.4605884 4.72498239-.819 6.849h-1.026c-1.6568542 0-3 1.3431458-3 3v2c.0033144.3414397.0655622.679743.184 1h-7.184c-1.9501104-.0040641-3.6174402 1.4020838-3.9424958 3.3249166-.3250556 1.9228329.7874133 3.7989068 2.6304958 4.4360834-.9174047 1.3517056-.9174047 3.1262944 0 4.478-1.6079538.550092-2.6883361 2.061554-2.6883361 3.761s1.0803823 3.210908 2.6883361 3.761c-.8670779 1.2662915-.9186112 2.9212136-.132 4.239h-2.056c-.5522847 0-1 .4477153-1 1s.4477153 1 1 1h45c.8284271 0 1.5.6715729 1.5 1.5s-.6715729 1.5-1.5 1.5h-34.5c-.5522847 0-1 .4477153-1 1s.4477153 1 1 1h30.991l-1.391 1.233c-1.2774319 1.1384278-2.9289039 1.7673396-4.64 1.767h-.96c-1.1045695 0-2 .8954305-2 2 .0008733.2694422-.1099083.5272084-.306.712-.1823963.1865985-.4330776.2906276-.694.288h-26c-.5522847 0-1-.4477153-1-1 0-1.1045695-.8954305-2-2-2h-.96c-1.7110617.0001526-3.3624694-.6287347-4.64-1.767l-1.392-1.233h6.992c.5522847 0 1-.4477153 1-1s-.4477153-1-1-1h-10.5c-.82842712 0-1.5-.6715729-1.5-1.5s.67157288-1.5 1.5-1.5c.55228475 0 1-.4477153 1-1s-.44771525-1-1-1c-1.93299662 0-3.5 1.5670034-3.5 3.5s1.56700338 3.5 3.5 3.5h.5l3.065 2.727c1.6450771 1.4655059 3.7718242 2.2745596 5.975 2.273h.96c0 1.6568542 1.3431458 3 3 3h26c1.6534434-.0082058 2.9917942-1.3465566 3-3h.96c2.2031072.0011854 4.3297254-.8078194 5.975-2.273l3.065-2.727h.5c.9282342-.0011655 1.8184575-.3688274 2.477-1.023 1.0027904-1.0010659 1.3030697-2.5079834.760597-3.8169697-.5424726-1.3089863-1.8206571-2.1617537-3.237597-2.1600303zm-9.5-14c0 1.1045695-.8954305 2-2 2h-28c-1.1045695 0-2-.8954305-2-2s.8954305-2 2-2h28c1.1045695 0 2 .8954305 2 2zm-20-19c.0005139-1.00596269.5051837-1.94470865 1.344-2.5.2999164.33048793.5753144.68242262.824 1.053.1982824.29724497.5400812.46612825.8966441.44303314.3565629-.02309512.6737195-.23465992.832-.555.1582805-.32034009.1336383-.70078817-.0646441-.99803314-.09-.135-.185-.261-.278-.389 1.5578247.29271311 2.619119 1.74681769 2.4229315 3.319716s-1.5821492 2.7217568-3.1641461 2.6228403c-1.5819968-.0989166-2.8140553-1.4114705-2.8127854-2.9965563zm-3 8v-2c0-.5522847.4477153-1 1-1h10c.5522847 0 1 .4477153 1 1v2c0 .5522847-.4477153 1-1 1h-10c-.5522847 0-1-.4477153-1-1zm-11 5c0-1.1045695.8954305-2 2-2h28c1.1045695 0 2 .8954305 2 2s-.8954305 2-2 2h-28c-1.1045695 0-2-.8954305-2-2zm0 12c0-1.1045695.8954305-2 2-2h28c1.1045695 0 2 .8954305 2 2s-.8954305 2-2 2h-28c-1.1045695 0-2-.8954305-2-2zm4 8c-1.1045695 0-2-.8954305-2-2s.8954305-2 2-2h28c1.1045695 0 2 .8954305 2 2s-.8954305 2-2 2z" fill="#428dff"/></g></g></svg>