<svg height="512" viewBox="0 0 60 60" width="512" xmlns="http://www.w3.org/2000/svg"><g id="Page-1" fill="none" fill-rule="evenodd"><g id="018---Pasta" fill-rule="nonzero" transform="translate(-1)"><g id="Icons" transform="translate(1 1)"><path id="Shape" d="m59 17.5c.0021341.6636932-.2605727 1.3008186-.729877 1.770123-.4693044.4693043-1.1064298.7320111-1.770123.729877h-53c-1.38071187 0-2.5-1.1192881-2.5-2.5s1.11928813-2.5 2.5-2.5h53c1.3807119 0 2.5 1.1192881 2.5 2.5z" fill="#e8edfc"/><path id="Shape" d="m56.5 15h-3c1.3807119 0 2.5 1.1192881 2.5 2.5s-1.1192881 2.5-2.5 2.5h3c1.3807119 0 2.5-1.1192881 2.5-2.5s-1.1192881-2.5-2.5-2.5z" fill="#cad9fc"/><path id="Shape" d="m55.62 20-3.35 2.98c-1.4625633 1.3014436-3.3522342 2.0203015-5.31 2.02h-.96c-.5522847 0-1 .4477153-1 1-.0081672 1.1011688-.8988312 1.9918328-2 2h-26c-1.1032019-.0032948-1.9967052-.8967981-2-2 0-.5522847-.4477153-1-1-1h-.96c-1.9577658.0003015-3.8474367-.7185564-5.31-2.02l-3.35-2.98z" fill="#a4c2f7"/><path id="Shape" d="m37 14.89v.11h-30v-.11c.04480369-5.44180295 3.0307502-10.43334728 7.8043549-13.04637701 4.7736048-2.61302974 10.5874592-2.43841987 15.1956451.45637701 4.3520208 2.70521077 6.9988486 7.4657197 7 12.59z" fill="#e8edfc"/><path id="Shape" d="m30 2.3c-2.3948102-1.50932802-5.1692513-2.30697986-8-2.3-.5146483.0001943-1.0289624.02622707-1.541.078 7.6495438.72361768 13.5047324 7.12839229 13.541 14.812v.11h3v-.11c-.0011514-5.1242803-2.6479792-9.88478923-7-12.59z" fill="#cad9fc"/><path id="Shape" d="m53 14.89v.11h-16v-.11c-.0011514-5.1242803-2.6479792-9.88478923-7-12.59 4.6081859-2.89479688 10.4220403-3.06940675 15.1956451-.45637701 4.7736047 2.61302973 7.7595512 7.60457406 7.8043549 13.04637701z" fill="#e8edfc"/><path id="Shape" d="m38 0c-.493 0-.978.032-1.459.078 7.6190967.75896717 13.431108 7.15524565 13.459 14.812v.11h3v-.11c-.0330754-8.25276542-6.7472147-14.91766772-15-14.89z" fill="#cad9fc"/><path id="Shape" d="m59 37.5c0 3.59-4.25 6.5-9.5 6.5-3.693 0-6.889-1.443-8.465-3.543-.1949297-.2733041-.5103044-.435092-.846-.434l-35.689.887c-1.2344506.0413696-2.39482319-.5878323-3.03362512-1.6449566-.63880192-1.0571243-.65621956-2.3769941-.04553587-3.4506072s1.75404859-1.7332162 2.98916099-1.7244362h.09l35.689.887c.3356956.001092.6510703-.1606959.846-.434 1.576-2.1 4.772-3.543 8.465-3.543 5.25 0 9.5 2.91 9.5 6.5z" fill="#e8edfc"/><path id="Shape" d="m49.5 31c-.5035644.0017599-1.0066533.0311373-1.507.088 4.538.491 8.007 3.17 8.007 6.412s-3.469 5.921-8.007 6.412c.5003467.0568627 1.0034356.0862401 1.507.088 5.25 0 9.5-2.91 9.5-6.5s-4.25-6.5-9.5-6.5z" fill="#cad9fc"/><path id="Shape" d="m59 51.5c.0022111 1.8803025-1.5196991 3.406689-3.4 3.41h-.09l-35.7-.89c-.3365592.0056396-.6510865.1684538-.85.44-1.5 2-4.47 3.41-7.96 3.52-.166104.0168407-.3330816.0235198-.5.02h-2.5c1.1045695 0 2-.8954305 2-2s-.8954305-2-2-2c1.17008359-.2622007 2.0017822-1.3008983 2.0017822-2.5s-.83169861-2.2377993-2.0017822-2.5c1.06574849.0001334 1.9443885-.8354629 1.99774249-1.8998751.05335401-1.0644121-.73732272-1.9836834-1.79774249-2.0901249l2.3-.01c.1669184-.0035198.333896.0031593.5.02 3.49.11 6.46 1.52 7.96 3.52.1989135.2715462.5134408.4343604.85.44l35.7-.89c.918407-.0223812 1.8069313.3270782 2.4640234.969108.6570921.6420299 1.0270582 1.5222129 1.0259766 2.440892z" fill="#e8edfc"/><path id="Shape" d="m55.51 48.09-2.289.057c1.6129553.3098231 2.7752725 1.7263122 2.7642414 3.3687169-.0110311 1.6424048-1.19227 3.0431535-2.8092414 3.3312831l2.334.058h.09c1.2182757-.0160769 2.3354319-.6808749 2.9306467-1.7439711s.5780609-2.3629809-.045-3.4100001-1.757371-1.6821058-2.9756467-1.6660288z" fill="#cad9fc"/></g><g id="Icons_copy_2" fill="#fff" transform="translate(1)"><path id="Shape" d="m6.5 16h-3c-1.38071187 0-2.5 1.1192881-2.5 2.5s1.11928813 2.5 2.5 2.5h.88l3.35 2.98c1.4625633 1.3014436 3.3522342 2.0203015 5.31 2.02h.96c.5522847 0 1 .4477153 1 1 .0032948 1.1032019.8967981 1.9967052 2 2h3c-1.1032019-.0032948-1.9967052-.8967981-2-2 0-.5522847-.4477153-1-1-1h-.96c-1.9577658.0003015-3.8474367-.7185564-5.31-2.02l-3.35-2.98h-.88c-1.38071187 0-2.5-1.1192881-2.5-2.5s1.11928813-2.5 2.5-2.5z"/><path id="Shape" d="m10 16c-.03857314-7.74066098 5.8520678-14.22379764 13.561-14.925-4.2294339-.44921048-8.4504234.92076235-11.6099113 3.76813611-3.15948793 2.84737377-4.95954418 6.90364989-4.95111836 11.15686389z"/><path id="Shape" d="m4.5 41.91 2.287-.057c-1.65499223-.3015914-2.84062752-1.768131-2.78884056-3.4495812.05178697-1.6814502 1.32542532-3.0722466 2.99584056-3.2714188-4.907-.132-1.094-.042-2.584-.042-1.2351124-.00878-2.3784773.6508231-2.98916099 1.7244362s-.59326605 2.3934829.04553587 3.4506072c.63880193 1.0571243 1.79917452 1.6863262 3.03362512 1.6449566z"/></g><g id="Icons_copy"><path id="Shape" d="m9.269 7.766 1.714 1.034c-1.28837464 2.141588-1.97356481 4.5917562-1.983 7.091h-2c.00923013-2.8634712.79328235-5.6710623 2.269-8.125z" fill="#fff"/><g fill="#428dff"><path id="Shape" d="m7.587 11.675c-.08157146.2585951-.05082179.5395579.08475203.7743877s.36351431.4019489.62824797.4606123c.51943002.12121 1.04256345-.1865901 1.18888393-.6995128.14632049-.5129227-.13568165-1.0504023-.64088393-1.2214872-.25807203-.0924436-.54332499-.0703975-.7841279.0606024-.2408029.1309998-.41428121.3585093-.4768721.6253976z"/><path id="Shape" d="m57.5 15h-2.545c-.3428082-5.52684823-3.5207373-10.48290444-8.4004003-13.10062441-4.879663-2.61771996-10.7663448-2.52442026-15.5605997.24662441-2.4297848-1.40538896-5.1870493-2.1455803-7.994-2.146-2.76269.01397923-5.4766774.72860295-7.888 2.077-2.4080165 1.35759982-4.4215818 3.31809488-5.843 5.689-.15129328.22876703-.19751359.51132138-.1269991.77637179.07051449.2650504.25102943.48728369.4959991.61062821.4732255.23812581 1.0497055.08682659 1.345-.353 1.2439259-2.07671905 3.0075339-3.7934537 5.117-4.981 2.1097284-1.17868947 4.4833803-1.80443916 6.9-1.819 7.3479203-.01426981 13.4492217 5.66949354 13.955 13h-3c-.5141511-5.66669892-5.2650239-10.00603068-10.955-10.00603068s-10.4408489 4.33933176-10.955 10.00603068h-7.545c-.92823417.0011655-1.81845748.3688274-2.477 1.023-1.00279038 1.0010659-1.30306968 2.5079834-.76059704 3.8169697.54247263 1.3089863 1.82065716 2.1617537 3.23759704 2.1600303h.5l3.066 2.727c1.64501726 1.4649512 3.7712374 2.2739399 5.974 2.273h.96c0 1.6568542 1.3431458 3 3 3h26c1.6529917-.0092882 2.9907118-1.3470083 3-3h.96c2.2031072.0011854 4.3297254-.8078194 5.975-2.273l3.065-2.727h.5c.9282342-.0011655 1.8184575-.3688274 2.477-1.023 1.0027904-1.0010659 1.3030697-2.5079834.760597-3.8169697-.5424726-1.3089863-1.8206571-2.1617537-3.237597-2.1600303zm-24.629-11.59c4.1788504-2.03104642 9.0931033-1.85655642 13.1173793.46575779 4.0242759 2.32231421 6.6342284 6.48986461 6.9666207 11.12424221h-3c-.2935645-3.4138165-2.1638217-6.49493735-5.0568724-8.33085147s-6.4772624-2.21616936-9.6911276-1.02814853c-.7017243-.82026989-1.4843471-1.56771489-2.336-2.231zm12.055 11.59c-.2453775-1.6106527-1.1384654-3.05101-2.4720693-3.9869121-1.3336039-.9359022-2.9918146-1.2860059-4.5899307-.9690879-.3795211-.94813235-.8504069-1.85708254-1.406-2.714 2.5598535-.75766151 5.3239983-.33910957 7.5447854 1.1424454 2.2207872 1.48155496 3.66874 3.8730221 3.9522146 6.5275546zm-6.438-3.025c.1695554-.0257114.3405591-.040741.512-.045 1.8507695-.0017263 3.4599 1.2691846 3.887 3.07h-3.932c-.0569279-1.0211204-.2133353-2.0342519-.467-3.025zm-15.488-5.012c4.6028002-.01027154 8.4688308 3.4598299 8.954 8.037h-3.028c-.4620482-2.914645-2.9749589-5.06057251-5.926-5.06057251s-5.4639518 2.14592751-5.926 5.06057251h-3.028c.4851692-4.5771701 4.3511998-8.04727154 8.954-8.037zm3.887 8.037h-7.776c.4340284-1.7953618 2.04092-3.0600766 3.888-3.0600766s3.4539716 1.2647148 3.888 3.0600766zm31.675 4.563c-.2824476.2801252-.6641976.4372107-1.062.437h-34.5c-.5522847 0-1 .4477153-1 1s.4477153 1 1 1h30.991l-1.391 1.233c-1.2774319 1.1384278-2.9289039 1.7673396-4.64 1.767h-.96c-1.1045695 0-2 .8954305-2 2 .0003954.2693445-.110308.526929-.306.712-.1823963.1865985-.4330776.2906276-.694.288h-26c-.5522847 0-1-.4477153-1-1 0-1.1045695-.8954305-2-2-2h-.96c-1.7110961.0003396-3.3625681-.6285722-4.64-1.767l-1.391-1.233h6.991c.5522847 0 1-.4477153 1-1s-.4477153-1-1-1h-10.5c-.82842712 0-1.5-.6715729-1.5-1.5s.67157288-1.5 1.5-1.5h53c.6079673-.0014954 1.1567088.3641377 1.3894378.9257993.2327291.5616615.1034115 1.2082539-.3274378 1.6372007z"/><path id="Shape" d="m50.5 31c-3.89 0-7.439 1.511-9.287 3.977l-35.689-.887h-.114c-1.59367904-.0063732-3.0668669.8474009-3.8536395 2.2333454-.7867726 1.3859446-.76476666 3.0885098.05756427 4.4536565.82233092 1.3651466 2.3170933 2.1805594 3.91007523 2.1329981l35.711-.853c1.826 2.432 5.375 3.943 9.265 3.943 5.79 0 10.5-3.364 10.5-7.5s-4.71-7.5-10.5-7.5zm0 13c-3.224 0-6.232-1.234-7.665-3.144-.3774614-.519775-.9796392-.8290315-1.622-.833h-.049l-35.69.887c-.65018722.0172725-1.2797515-.2289917-1.74565221-.68284s-.72857718-1.0767434-.72834779-1.72716c.00468992-.6493105.26915918-1.2697121.73436875-1.722709.46520958-.4529969 1.09242571-.7008721 1.74163125-.688291l35.688.887c.6603842.0153208 1.2857399-.2964214 1.671-.833 1.433-1.909 4.441-3.143 7.665-3.143 4.687 0 8.5 2.467 8.5 5.5s-3.813 5.5-8.5 5.5z"/><path id="Shape" d="m56.479 48.087-35.715.854c-1.729-2.3-5.075-3.8-8.64-3.913-.2072325-.022074-.4156233-.0314249-.624-.028h-9.5c-.55228475 0-1 .4477153-1 1s.44771525 1 1 1h7c.55228475 0 1 .4477153 1 1s-.44771525 1-1 1h-7c-.55228475 0-1 .4477153-1 1s.44771525 1 1 1h7c.532 0 1 .7 1 1.5s-.468 1.5-1 1.5h-7c-.55228475 0-1 .4477153-1 1s.44771525 1 1 1h7c.55228475 0 1 .4477153 1 1s-.44771525 1-1 1h-7c-.55228475 0-1 .4477153-1 1s.44771525 1 1 1h9.5c.1775992.0042798.3552908-.0027344.532-.021 3.657-.117 7-1.619 8.755-3.956l35.693.89c1.1872958.0222492 2.3347916-.4281159 3.19-1.252 1.3005699-1.267265 1.6923287-3.201726.9872959-4.8751571-.7050329-1.673431-2.3629795-2.7443312-4.1782959-2.6988429zm1.793 6.142c-.4614856.4585935-1.0917557.7064322-1.742.685l-35.693-.89c-.659389-.0084652-1.2823567.3017154-1.673.833-1.373 1.829-4.13 3.025-7.288 3.131-.018 0-.038 0-.057 0 .3932306-1.0643466.1347402-2.2601081-.663-3.067 1.1253475-1.4193355 1.1253475-3.4266645 0-4.846.5399461-.5559332.8425992-1.3000151.844-2.075-.0033003-.3379201-.0645208-.6727722-.181-.99.048 0 .089 0 .149.01 3.066.1 5.823 1.294 7.2 3.123.3858635.5374682 1.0125649.8493214 1.674.833l35.691-.89c.6494059-.0149535 1.2775383.2319029 1.743.685.465589.4547959.7280808 1.0781448.7280808 1.729s-.2624918 1.2742041-.7280808 1.729z"/></g></g></g></g></svg>