<svg height="512" viewBox="0 0 61 60" width="512" xmlns="http://www.w3.org/2000/svg"><g id="Page-1" fill="none" fill-rule="evenodd"><g id="018---Sandwich" fill-rule="nonzero" transform="translate(0 -1)"><path id="Shape" d="m53 21c-.0836039 1.6298645-.8014087 3.1623779-2 4.27-.6639559.7523584-1.020888 1.726783-1 2.73v25c0 1.8565154-.7374979 3.6369928-2.0502525 4.9497475-1.3127547 1.3127546-3.0932321 2.0502525-4.9497475 2.0502525h-24c-1.2092984-.0002353-2.3979104-.3137533-3.45-.91-.4935523-.3101658-.8272238-.8202242-.9136945-1.3966958-.0864707-.5764717.0828655-1.1619812.4636945-1.6033042l33.62-39c.4180858-.4869031 1.0444336-.7435968 1.6839743-.6901367s1.214579.4105792 1.5460257.9601367c.6837419 1.091164 1.0475352 2.3523138 1.05 3.64z" fill="#e8edfc"/><path id="Shape" d="m52 17.38c-.3303283-.5470386-.9021787-.9032898-1.5388131-.9586493s-1.2613934.1968387-1.6811869.6786493c.0841202.0843296.1579668.1783163.22.28.6625974 1.0905776 1.0088314 2.3439449 1 3.62-.0836039 1.6298645-.8014087 3.1623779-2 4.27-.6639559.7523584-1.020888 1.726783-1 2.73v25c0 1.8565154-.7374979 3.6369928-2.0502525 4.9497475-1.3127547 1.3127546-3.0932321 2.0502525-4.9497475 2.0502525h3c1.8565154 0 3.6369928-.7374979 4.9497475-2.0502525 1.3127546-1.3127547 2.0502525-3.0932321 2.0502525-4.9497475v-25c-.0234165-1.0066427.3336796-1.985086 1-2.74 1.1962387-1.1051835 1.9138317-2.6336567 2-4.26.0088314-1.2760551-.3374026-2.5294224-1-3.62z" fill="#cad9fc"/><path id="Shape" d="m46.87 8.94-26.87 31.16c.0049288-.0331511.0049288-.0668489 0-.1 0-1.66-3-6-3-6s-3 4.34-3 6c0 1.6568542 1.3431458 3 3 3 .1763363.0152782.3536637.0152782.53 0l-3.88 4.5c-.4915075.5686455-1.2603357.8137094-1.9902557.6343938s-1.2976766-.7527313-1.4697443-1.4843938c-.1337397-.5395925-.19759578-1.0941325-.19-1.65v-25c.020888-1.003217-.33604405-1.9776416-1-2.73-1.19859126-1.1076221-1.91639612-2.6401355-2-4.27 0-6.08 8.19-11 22-11 7.74 0 13.71 1.54 17.46 4 .468197.31758077.7799893.81859593.8581293 1.37891734.0781401.56032141-.084683 1.12752443-.4481293 1.56108266z" fill="#e8edfc"/><path id="Shape" d="m14 40c.2517302-1.2951837.7618849-2.526357 1.5-3.62-.75-1.29-1.5-2.38-1.5-2.38s-3 4.34-3 6c0 1.6568542 1.3431458 3 3 3 .1763363.0152782.3536637.0152782.53 0l-3.88 4.5c.3796661.4305009.9259988.6771243 1.5.6771243s1.1203339-.2466234 1.5-.6771243l3.88-4.5c-.1763363.0152782-.3536637.0152782-.53 0-1.6568542 0-3-1.3431458-3-3z" fill="#cad9fc"/><path id="Shape" d="m46.46 6c-3.75-2.46-9.72-4-17.46-4-.54 0-1.06 0-1.58 0 7 .17 12.53 1.65 16 3.93.4874955.31682323.8129948.83010038.8917213 1.40614809s-.0971131 1.15784117-.4817213 1.59385191l-24.67 28.66c.435552.7403737.7209861 1.5592977.84 2.41.0049288.0331511.0049288.0668489 0 .1l26.87-31.16c.3634463-.43355823.5262694-1.00076125.4481293-1.56108266-.07814-.56032141-.3899323-1.06133657-.8581293-1.37891734z" fill="#cad9fc"/><circle id="Oval" cx="4" cy="23" fill="#e8edfc" r="3"/><circle id="Oval" cx="56" cy="31.25" fill="#e8edfc" r="3"/><circle id="Oval" cx="19" cy="12" fill="#fff" r="5"/><path id="Shape" d="m19 7c-.509822.00636665-1.0156711.09067483-1.5.25 2.0518727.67441794 3.4387505 2.59013402 3.4387505 4.75 0 2.159866-1.3868778 4.0755821-3.4387505 4.75 1.8848913.6190497 3.9574938.0651104 5.2822128-1.4117638 1.3247189-1.4768743 1.6509349-3.5972782.8313906-5.40403911-.8195443-1.80676093-2.6298019-2.95806329-4.6136034-2.93419709z" fill="#e8edfc"/><circle id="Oval" cx="33" cy="12" fill="#fff" r="5"/><path id="Shape" d="m33 7c-.509822.00636665-1.0156711.09067483-1.5.25 2.0518727.67441794 3.4387505 2.59013402 3.4387505 4.75 0 2.159866-1.3868778 4.0755821-3.4387505 4.75 1.8848913.6190497 3.9574938.0651104 5.2822128-1.4117638 1.3247189-1.4768743 1.6509349-3.5972782.8313906-5.40403911-.8195443-1.80676093-2.6298019-2.95806329-4.6136034-2.93419709z" fill="#e8edfc"/><circle id="Oval" cx="45" cy="32" fill="#cad9fc" r="1"/><circle id="Oval" cx="45" cy="43" fill="#cad9fc" r="1"/><circle id="Oval" cx="39" cy="36" fill="#cad9fc" r="1"/><circle id="Oval" cx="25" cy="53" fill="#cad9fc" r="1"/><circle id="Oval" cx="36" cy="53" fill="#cad9fc" r="1"/><circle id="Oval" cx="25" cy="27" fill="#cad9fc" r="1"/><circle id="Oval" cx="30" cy="21" fill="#cad9fc" r="1"/><path id="Shape" d="m39 47.19h-8c-.3148263.0100435-.6159839-.1288334-.8127544-.3747965s-.2661524-.5702606-.1872456-.8752035c.2290081-.8714435.6924598-1.6634617 1.34-2.29 2.0279751-1.9480249 5.2320249-1.9480249 7.26 0 .6694758.6191641 1.1541046 1.4118785 1.4 2.29.0789068.3049429.0095249.6292404-.1872456.8752035s-.4979281.38484-.8127544.3747965z" fill="#cad9fc"/><path id="Shape" d="m20 26c0 1.6568542-1.3431458 3-3 3s-3-1.3431458-3-3c0-1.66 3-6 3-6s3 4.34 3 6z" fill="#e8edfc"/><path id="Shape" d="m20 26c0 1.6568542-1.3431458 3-3 3s-3-1.3431458-3-3c0-1.66 3-6 3-6s3 4.34 3 6z" fill="#e8edfc"/><path id="Shape" d="m20 26c0 1.6568542-1.3431458 3-3 3-.856985.0103177-1.6755226-.3551009-2.24-1 .0797099.0096348.1602901.0096348.24 0 1.6568542 0 3-1.3431458 3-3-.2941528-1.4162339-.8687703-2.759275-1.69-3.95.4-.63.69-1.05.69-1.05s3 4.34 3 6z" fill="#cad9fc"/><path id="Shape" d="m20 40c0 1.6568542-1.3431458 3-3 3s-3-1.3431458-3-3c0-1.66 3-6 3-6s3 4.34 3 6z" fill="#e8edfc"/><path id="Shape" d="m20 40c0 1.6568542-1.3431458 3-3 3-.856985.0103177-1.6755226-.3551009-2.24-1 .0797099.0096348.1602901.0096348.24 0 1.6568542 0 3-1.3431458 3-3-.2877758-1.4336726-.8626414-2.7943012-1.69-4 .4-.63.69-1 .69-1s3 4.34 3 6z" fill="#cad9fc"/><path id="Shape" d="m13.65 47.45c-.2240374-.2389461-.3824974-.5317526-.46-.85-.27-1.06-.19.4-.19-26.6.020888-1.003217-.3360441-1.9776416-1-2.73-1.1985913-1.1076221-1.9163961-2.6401355-2-4.27 0-7.09 10-10.67 20.42-11-11.42-.32-23.42 3.23-23.42 11 .08360388 1.6298645.80140874 3.1623779 2 4.27.66395595.7523584 1.020888 1.726783 1 2.73v3c0 23.89-.07 22.58.19 23.6.1720677.7316625.7398243 1.3050782 1.4697443 1.4843938s1.4987482-.0657483 1.9902557-.6343938z" fill="#fff"/><path id="Shape" d="m4 26c.52866805-.0025877 1.04685686-.1476805 1.5-.42-.9107595-.540413-1.4691179-1.5209773-1.4691179-2.58s.5583584-2.039587 1.4691179-2.58c-.45314314-.2723195-.97133195-.4174123-1.5-.42-1.65685421 0-2.99999991 1.3431458-2.99999991 3s1.3431457 3 2.99999991 3z" fill="#fff"/><path id="Shape" d="m10.36 5.58 1.17 1.63c-2.04256042 1.24678125-3.35728461 3.4032269-3.53 5.79h-2c.02358035-1.5294676.48136486-3.02073529 1.32-4.3.79521553-1.23225429 1.82881277-2.29305146 3.04-3.12z" fill="#fff"/><g fill="#428dff"><path id="Shape" d="m46 52c-.5522847 0-1 .4477153-1 1 0 1.1045695-.8954305 2-2 2-.5522847 0-1 .4477153-1 1s.4477153 1 1 1c2.209139 0 4-1.790861 4-4 0-.5522847-.4477153-1-1-1z"/><path id="Shape" d="m9.16 9.2c0-.55228475-.44771525-1-1-1s-1 .44771525-1 1 .44771525 1 1 1 1-.44771525 1-1z"/><path id="Shape" d="m0 23c.00225142 1.9296759 1.38184068 3.5826594 3.28 3.93 1.02042141 2.7220984 3.07690268 4.9295801 5.72 6.14v11.93c-.00626623.6169555.06768661 1.2321087.22 1.83.2594691 1.0966872 1.1116714 1.9554459 2.2063379 2.2233122 1.0946664.2678664 2.2471117-.1003523 2.9836621-.9533122l3.68-4.27c1.5451799-.4212645 2.690124-1.7235892 2.91-3.31l26.63-30.93c.5678552-.66170849.8197144-1.53774026.69-2.4-.1172433-.84678378-.5996692-1.59966061-1.32-2.06-4.11-2.66-10.5-4.13-18-4.13-3.2158687-.02092946-6.4255866.28396023-9.58.91-1.5944637.3294272-3.1595917.78759502-4.68 1.37-1.5561912.56755842-3.0293025 1.34111004-4.38 2.3-.2195804.15790616-.36583548.39802173-.4054031.66557419-.03956761.26755246.0309269.53972255.1954031.75442581.3447247.40172207.9313834.49099624 1.38.21 1.2110341-.8634582 2.5329368-1.55972755 3.93-2.07 1.4219178-.53484838 2.8829011-.95943621 4.37-1.27 3.0198594-.59607845 6.0919239-.8875393 9.17-.87 7.12 0 13.13 1.35 16.92 3.81.2316974.15072083.3853156.39577848.42.67.0462828.29069159-.0378569.58700961-.23.81l-25.65 29.71c-.7460331-1.6032455-1.6293241-3.1389674-2.64-4.59-.1870412-.2679657-.4932125-.4276365-.82-.4276365s-.6329588.1596708-.82.4276365c-.53.79-3.18 4.72-3.18 6.59.0032679 1.6466715 1.0153246 3.1230837 2.55 3.72l-2.66 3.08c-.2482899.2835094-.6348827.4033532-1 .31-.3717761-.0908558-.6590888-.3859337-.74-.76-.1086972-.4415262-.1591257-.8953824-.15-1.35v-25c.018544-1.270733-.4543497-2.4995401-1.32-3.43-1.00373768-.9256672-1.60651417-2.2065672-1.68-3.57 0-.5522847-.44771525-1-1-1s-1 .4477153-1 1c.05488694 1.8955282.85639077 3.692622 2.23 5 .49415698.5491238.76833242 1.2612678.77 2v10.82c-1.6030754-.9486612-2.86894124-2.3753829-3.62-4.08 1.90508505-.7002626 2.98370693-2.716349 2.50906954-4.6897816-.4746374-1.9734326-2.35205436-3.2785514-4.36721134-3.0359425-2.01515698.242609-3.52916576 1.9560287-3.5218582 3.9857241zm17 12.82c.9068429 1.2651436 1.5838448 2.6800775 2 4.18 0 1.1045695-.8954305 2-2 2s-2-.8954305-2-2c.4180982-1.4991938 1.0949436-2.9138006 2-4.18zm-13-14.82c1.1045695 0 2 .8954305 2 2s-.8954305 2-2 2-2-.8954305-2-2 .8954305-2 2-2z"/><path id="Shape" d="m56 27.25c-1.9341356.0057509-3.5870929 1.3945628-3.9261618 3.2987544-.339069 1.9041916.7328931 3.778215 2.5461618 4.4512456-.7527998 1.7009172-2.0184953 3.1239506-3.62 4.07v-11.07c-.0023799-.7413367.2763453-1.4560167.78-2 1.3672238-1.3109336 2.1645224-3.1066511 2.22-5-.0039274-1.4638149-.4160325-2.8975252-1.19-4.14-.4977228-.8256098-1.3618809-1.361733-2.3226518-1.4409718s-1.9010876.3080616-2.5273482 1.0409718l-33.62 39c-.5939593.6833533-.8475274 1.5984034-.69 2.49.1483572.8407252.6608369 1.572839 1.4 2 1.2035414.68611 2.5646284 1.047918 3.95 1.05h24c4.418278 0 8-3.581722 8-8v-11.68c2.6334921-1.205522 4.6852719-3.4010341 5.71-6.11 2.118501-.2872846 3.6366095-2.1896566 3.4466722-4.3190939-.1899372-2.1294372-2.0207696-3.7330972-4.1566722-3.6409061zm-7 25.75c0 3.3137085-2.6862915 6-6 6h-24c-1.0344774.0013138-2.0513631-.2675577-2.95-.78-.2291558-.1316185-.3870307-.3592522-.43-.62-.0595215-.3084507.0293601-.6269432.24-.86l33.62-39c.1900027-.2221378.4676882-.3500192.76-.35h.08c.322295.0245383.6128543.203344.78.48.5897254.9373338.9017785 2.0225852.9 3.13-.0703976 1.3649826-.6693491 2.6489624-1.67 3.58-.8704761.9241301-1.3474267 2.1505743-1.33 3.42zm7-19.75c-1.1045695 0-2-.8954305-2-2s.8954305-2 2-2 2 .8954305 2 2-.8954305 2-2 2z"/><path id="Shape" d="m19 6c-3.3137085 0-6 2.6862915-6 6s2.6862915 6 6 6 6-2.6862915 6-6-2.6862915-6-6-6zm0 10c-2.209139 0-4-1.790861-4-4s1.790861-4 4-4 4 1.790861 4 4c0 1.060866-.4214274 2.0782816-1.1715729 2.8284271s-1.7675611 1.1715729-2.8284271 1.1715729z"/><path id="Shape" d="m39 12c0-3.3137085-2.6862915-6-6-6s-6 2.6862915-6 6 2.6862915 6 6 6 6-2.6862915 6-6zm-10 0c0-2.209139 1.790861-4 4-4s4 1.790861 4 4-1.790861 4-4 4-4-1.790861-4-4z"/><circle id="Oval" cx="21" cy="13" r="1"/><circle id="Oval" cx="31" cy="13" r="1"/><circle id="Oval" cx="45" cy="32" r="1"/><circle id="Oval" cx="45" cy="43" r="1"/><circle id="Oval" cx="39" cy="36" r="1"/><circle id="Oval" cx="25" cy="53" r="1"/><circle id="Oval" cx="36" cy="53" r="1"/><circle id="Oval" cx="25" cy="27" r="1"/><circle id="Oval" cx="30" cy="21" r="1"/><path id="Shape" d="m39.33 42.93c-2.4168642-2.3290884-6.2431358-2.3290884-8.66 0-.7723159.7510448-1.3254509 1.6982885-1.6 2.74-.1541505.5920013-.0288887 1.2219948.34 1.71.3819131.5092833.983457.8063421 1.62.8h7.97c.636543.0063421 1.2380869-.2907167 1.62-.8.3688887-.4880052.4941505-1.1179987.34-1.71-.2862949-1.043616-.8495126-1.9903744-1.63-2.74zm-.33 3.26h-8c.1844022-.6904667.5504245-1.31892 1.06-1.82 1.642428-1.5682605 4.227572-1.5682605 5.87 0 .507923.4961174.8768611 1.116761 1.07 1.8z"/><path id="Shape" d="m17 30c2.209139 0 4-1.790861 4-4 0-1.87-2.65-5.8-3.18-6.57-.1870412-.2679657-.4932125-.4276365-.82-.4276365s-.6329588.1596708-.82.4276365c-.53.77-3.18 4.7-3.18 6.57 0 2.209139 1.790861 4 4 4zm0-8.18c.9068429 1.2651436 1.5838448 2.6800775 2 4.18 0 1.1045695-.8954305 2-2 2s-2-.8954305-2-2c.4180982-1.4991938 1.0949436-2.9138006 2-4.18z"/></g></g></g></svg>